<svg 
 xmlns="http://www.w3.org/2000/svg"
 xmlns:xlink="http://www.w3.org/1999/xlink"
 width="40px" height="40px">
<path fill-rule="evenodd"  fill="rgb(26, 140, 255)"
 d="M-0.000,-0.000 L40.000,-0.000 L40.000,40.000 L-0.000,40.000 L-0.000,-0.000 Z"/>
<path fill-rule="evenodd"  fill="rgb(255, 255, 255)"
 d="M28.782,26.109 L23.274,19.555 L28.756,14.244 C28.917,14.402 29.008,14.618 29.007,14.844 L29.007,25.536 C29.007,25.748 28.927,25.953 28.782,26.109 ZM11.281,14.219 C11.435,14.079 11.636,14.000 11.844,14.000 L28.163,14.000 C28.371,14.000 28.572,14.079 28.726,14.219 L20.003,21.034 L11.281,14.219 ZM11.228,26.109 C11.083,25.953 11.003,25.749 11.003,25.536 L11.003,14.844 C11.003,14.618 11.093,14.402 11.255,14.244 L16.737,19.555 L11.228,26.109 ZM20.003,22.722 L22.293,20.505 L28.741,26.148 C28.586,26.297 28.379,26.380 28.163,26.380 L11.844,26.380 C11.628,26.380 11.421,26.297 11.265,26.148 L17.714,20.505 L20.003,22.722 Z"/>
</svg>