<svg 
 xmlns="http://www.w3.org/2000/svg"
 xmlns:xlink="http://www.w3.org/1999/xlink"
 width="30px" height="30px">
<path fill-rule="evenodd"  fill="rgb(26, 140, 255)"
 d="M14.989,30.000 C6.711,30.000 -0.000,23.284 -0.000,15.000 C-0.000,6.716 6.711,-0.000 14.989,-0.000 C23.267,-0.000 29.977,6.716 29.977,15.000 C29.977,23.284 23.267,30.000 14.989,30.000 ZM16.055,10.939 C16.055,10.205 16.125,9.813 17.177,9.813 L18.585,9.813 L18.585,7.000 L16.334,7.000 C13.629,7.000 12.677,8.364 12.677,10.658 L12.677,12.347 L10.991,12.347 L10.991,15.159 L12.677,15.159 L12.677,23.319 L16.051,23.319 L16.051,15.159 L18.302,15.159 L18.601,12.346 L16.051,12.346 L16.055,10.939 Z"/>
</svg>