<svg 
 xmlns="http://www.w3.org/2000/svg"
 xmlns:xlink="http://www.w3.org/1999/xlink"
 width="31px" height="30px">
<path fill-rule="evenodd"  fill="rgb(26, 140, 255)"
 d="M15.010,30.000 C6.720,30.000 -0.000,23.284 -0.000,15.000 C-0.000,6.716 6.720,-0.000 15.010,-0.000 C23.300,-0.000 30.021,6.716 30.021,15.000 C30.021,23.284 23.300,30.000 15.010,30.000 ZM16.767,14.571 L12.263,14.571 L12.263,16.200 L14.968,16.200 C14.859,16.899 14.151,18.249 12.263,18.249 C10.635,18.249 9.306,16.905 9.306,15.250 C9.306,13.594 10.635,12.251 12.263,12.251 C13.190,12.251 13.810,12.644 14.164,12.984 L15.459,11.742 C14.628,10.968 13.551,10.500 12.263,10.500 C9.627,10.500 7.494,12.624 7.494,15.250 C7.494,17.876 9.627,20.000 12.263,20.000 C15.016,20.000 16.842,18.072 16.842,15.358 C16.842,15.046 16.808,14.809 16.767,14.571 ZM22.483,14.571 L21.121,14.571 L21.121,13.214 L19.758,13.214 L19.758,14.571 L18.395,14.571 L18.395,15.928 L19.758,15.928 L19.758,17.286 L21.121,17.286 L21.121,15.928 L22.483,15.928 L22.483,14.571 Z"/>
</svg>