<svg 
 xmlns="http://www.w3.org/2000/svg"
 xmlns:xlink="http://www.w3.org/1999/xlink"
 width="15px" height="15px">
<path fill-rule="evenodd"  fill="rgb(1, 200, 254)"
 d="M8.013,2.365 C9.032,2.620 9.924,3.385 10.179,4.531 C10.434,5.551 10.052,6.570 9.160,7.335 C8.522,7.844 8.013,8.609 8.013,9.374 C8.140,9.756 7.885,10.011 7.503,10.011 C7.121,10.011 6.866,9.756 6.866,9.374 C6.866,8.227 7.376,7.080 8.395,6.315 C8.905,5.933 9.032,5.423 8.905,4.786 C8.777,4.277 8.395,3.767 7.758,3.639 C7.248,3.512 6.866,3.639 6.484,3.894 C6.102,4.149 5.974,4.659 5.974,5.041 C5.974,5.423 5.719,5.678 5.337,5.678 C4.955,5.678 4.700,5.423 4.700,5.041 C4.700,4.149 5.082,3.385 5.719,2.875 C6.356,2.365 7.248,2.111 8.013,2.365 L8.013,2.365 Z"/>
<path fill-rule="evenodd"  fill="rgb(1, 200, 254)"
 d="M8.156,10.925 C8.376,11.145 8.596,11.365 8.596,11.806 C8.596,12.026 8.376,12.466 8.156,12.466 C8.156,12.686 7.716,12.906 7.495,12.906 C7.275,12.906 6.835,12.686 6.615,12.466 C6.395,12.246 6.395,12.026 6.395,11.806 C6.395,11.585 6.395,11.145 6.615,10.925 C7.055,10.485 7.716,10.485 8.156,10.925 Z"/>
<path fill-rule="evenodd"  fill="rgb(1, 200, 254)"
 d="M7.500,15.000 C3.353,15.000 0.000,11.647 0.000,7.500 C0.000,3.353 3.353,-0.000 7.500,-0.000 C11.647,-0.000 15.000,3.353 15.000,7.500 C15.000,11.647 11.647,15.000 7.500,15.000 ZM7.500,1.500 C4.220,1.500 1.500,4.220 1.500,7.500 C1.500,10.780 4.220,13.500 7.500,13.500 C10.780,13.500 13.500,10.780 13.500,7.500 C13.500,4.220 10.780,1.500 7.500,1.500 Z"/>
</svg>