<svg 
 xmlns="http://www.w3.org/2000/svg"
 xmlns:xlink="http://www.w3.org/1999/xlink"
 width="30px" height="30px">
<path fill-rule="evenodd"  fill="rgb(26, 140, 255)"
 d="M14.989,30.000 C6.710,30.000 -0.000,23.284 -0.000,15.000 C-0.000,6.716 6.710,-0.000 14.989,-0.000 C23.267,-0.000 29.977,6.716 29.977,15.000 C29.977,23.284 23.267,30.000 14.989,30.000 ZM22.934,11.701 C22.894,10.849 22.759,10.268 22.563,9.760 C22.358,9.233 22.085,8.787 21.640,8.342 C21.196,7.897 20.751,7.624 20.225,7.420 C19.715,7.222 19.134,7.087 18.283,7.048 C17.430,7.010 17.159,7.000 14.988,7.000 C14.989,7.000 14.989,7.000 14.990,7.000 L14.987,7.000 C14.987,7.000 14.988,7.000 14.988,7.000 C12.818,7.000 12.546,7.010 11.693,7.048 C10.842,7.087 10.261,7.222 9.753,7.420 C9.227,7.624 8.781,7.898 8.337,8.342 C7.892,8.787 7.619,9.233 7.414,9.759 C7.216,10.268 7.081,10.850 7.043,11.701 C7.005,12.554 6.995,12.827 6.995,15.000 C6.995,17.173 7.004,17.445 7.043,18.298 C7.082,19.150 7.217,19.731 7.415,20.239 C7.618,20.766 7.892,21.212 8.336,21.657 C8.780,22.102 9.227,22.376 9.752,22.580 C10.260,22.778 10.842,22.913 11.693,22.952 C12.545,22.990 12.818,23.000 14.988,23.000 C17.160,23.000 17.431,22.990 18.284,22.952 C19.135,22.913 19.717,22.778 20.225,22.580 C20.751,22.376 21.196,22.102 21.640,21.657 C22.085,21.212 22.358,20.766 22.563,20.240 C22.759,19.731 22.894,19.149 22.934,18.298 C22.973,17.445 22.983,17.173 22.983,15.000 C22.983,12.827 22.973,12.554 22.934,11.701 Z"/>
<path fill-rule="evenodd"  fill="rgb(26, 140, 255)"
 d="M21.496,18.230 C21.460,19.010 21.330,19.433 21.221,19.715 C21.076,20.088 20.903,20.354 20.622,20.634 C20.343,20.914 20.077,21.087 19.704,21.232 C19.422,21.342 18.999,21.472 18.220,21.508 C17.377,21.546 17.124,21.555 14.990,21.555 C12.855,21.555 12.602,21.546 11.759,21.508 C10.980,21.472 10.557,21.341 10.275,21.232 C9.902,21.087 9.635,20.914 9.356,20.633 C9.076,20.354 8.903,20.088 8.757,19.714 C8.648,19.432 8.517,19.009 8.482,18.229 C8.444,17.386 8.436,17.132 8.436,14.996 C8.436,12.860 8.444,12.608 8.482,11.764 C8.517,10.984 8.648,10.561 8.757,10.279 C8.902,9.906 9.076,9.639 9.356,9.359 C9.635,9.079 9.902,8.906 10.275,8.760 C10.557,8.650 10.980,8.520 11.759,8.484 C12.497,8.451 12.783,8.441 14.272,8.440 L14.272,8.442 C14.485,8.441 14.723,8.442 14.990,8.442 C17.124,8.442 17.377,8.449 18.220,8.488 C18.999,8.523 19.422,8.653 19.704,8.763 C20.077,8.908 20.343,9.081 20.622,9.361 C20.903,9.641 21.075,9.908 21.221,10.281 C21.330,10.563 21.460,10.986 21.496,11.766 C21.534,12.610 21.543,12.863 21.543,14.998 C21.543,17.133 21.534,17.386 21.496,18.230 ZM14.989,10.892 C14.989,10.892 14.989,10.892 14.990,10.892 L14.989,10.892 C14.989,10.892 14.989,10.892 14.989,10.892 C12.722,10.892 10.884,12.731 10.884,15.000 C10.884,17.269 12.722,19.107 14.990,19.107 C17.257,19.107 19.094,17.269 19.094,15.000 C19.094,12.731 17.256,10.892 14.989,10.892 ZM19.257,9.770 L19.257,9.770 C18.727,9.770 18.297,10.199 18.297,10.730 C18.297,11.260 18.727,11.690 19.257,11.690 C19.786,11.690 20.216,11.260 20.216,10.730 C20.216,10.199 19.786,9.770 19.257,9.770 Z"/>
<path fill-rule="evenodd"  fill="rgb(26, 140, 255)"
 d="M14.990,12.333 C13.518,12.333 12.325,13.527 12.325,15.000 C12.325,16.473 13.518,17.667 14.990,17.667 C16.461,17.667 17.654,16.473 17.654,15.000 C17.654,13.527 16.461,12.333 14.990,12.333 L14.990,12.333 Z"/>
</svg>