<svg 
 xmlns="http://www.w3.org/2000/svg"
 xmlns:xlink="http://www.w3.org/1999/xlink"
 width="30px" height="30px">
<path fill-rule="evenodd"  fill="rgb(26, 140, 255)"
 d="M14.989,30.000 C6.710,30.000 -0.000,23.284 -0.000,15.000 C-0.000,6.716 6.710,-0.000 14.989,-0.000 C23.267,-0.000 29.977,6.716 29.977,15.000 C29.977,23.284 23.267,30.000 14.989,30.000 ZM14.979,7.500 C12.769,7.500 10.972,9.236 10.972,11.371 C10.972,13.505 12.769,15.241 14.979,15.241 C17.189,15.241 18.985,13.505 18.985,11.371 C18.985,9.236 17.189,7.500 14.979,7.500 ZM19.304,15.905 C18.960,15.375 18.235,15.215 17.686,15.549 C16.044,16.546 13.931,16.546 12.291,15.549 C11.742,15.215 11.017,15.375 10.673,15.905 C10.327,16.435 10.492,17.135 11.040,17.469 C11.765,17.908 12.551,18.220 13.367,18.400 L11.127,20.564 C10.669,21.007 10.669,21.725 11.127,22.168 C11.357,22.389 11.657,22.499 11.957,22.499 C12.258,22.499 12.558,22.389 12.788,22.168 L14.988,20.041 L17.191,22.168 C17.648,22.611 18.391,22.611 18.850,22.168 C19.309,21.725 19.309,21.006 18.850,20.564 L16.610,18.400 C17.426,18.220 18.212,17.909 18.937,17.469 C19.485,17.135 19.650,16.435 19.304,15.905 Z"/>
<path fill-rule="evenodd"  fill="rgb(26, 140, 255)"
 d="M14.979,9.768 C14.064,9.768 13.319,10.487 13.319,11.371 C13.319,12.254 14.064,12.973 14.979,12.973 C15.893,12.973 16.637,12.254 16.637,11.371 C16.637,10.487 15.893,9.768 14.979,9.768 L14.979,9.768 Z"/>
</svg>