<svg 
 xmlns="http://www.w3.org/2000/svg"
 xmlns:xlink="http://www.w3.org/1999/xlink"
 width="1.389in" height="0.403in">
<path fill-rule="evenodd"  fill="rgb(0, 178, 226)"
 d="M19.600,5.600 C19.600,4.053 20.854,2.800 22.400,2.800 C23.946,2.800 25.200,4.053 25.200,5.600 C25.200,7.146 23.946,8.400 22.400,8.400 C20.854,8.400 19.600,7.146 19.600,5.600 Z"/>
<path fill-rule="evenodd"  fill="rgb(0, 178, 226)"
 d="M6.000,14.000 C6.000,9.582 9.582,6.000 14.000,6.000 C18.418,6.000 22.000,9.582 22.000,14.000 C22.000,18.418 18.418,22.000 14.000,22.000 C9.582,22.000 6.000,18.418 6.000,14.000 Z"/>
<path fill-rule="evenodd"  stroke="rgb(0, 178, 226)" stroke-width="2px" stroke-linecap="butt" stroke-linejoin="miter" fill="none"
 d="M2.000,14.000 C2.000,7.372 7.372,2.000 14.000,2.000 C20.627,2.000 26.000,7.372 26.000,14.000 C26.000,20.627 20.627,26.000 14.000,26.000 C7.372,26.000 2.000,20.627 2.000,14.000 Z"/>
<path fill-rule="evenodd"  fill="rgb(0, 0, 0)"
 d="M35.225,18.022 C33.744,18.022 33.240,17.211 32.980,16.764 L32.947,16.748 L32.947,21.067 L30.849,21.067 L30.849,9.647 L32.882,9.647 L32.882,9.663 L32.850,9.663 L32.850,10.838 L32.882,10.838 C33.289,10.210 33.858,9.448 35.274,9.448 C37.047,9.448 38.625,10.838 38.625,13.669 C38.625,15.903 37.616,18.022 35.225,18.022 ZM34.688,11.302 C33.354,11.302 32.882,12.510 32.898,13.801 C32.898,14.761 33.289,16.268 34.639,16.268 C35.973,16.268 36.494,15.125 36.494,13.917 C36.494,12.626 36.136,11.302 34.688,11.302 Z"/>
<path fill-rule="evenodd"  fill="rgb(0, 0, 0)"
 d="M39.650,6.800 L41.748,6.800 L41.748,17.807 L39.650,17.807 L39.650,6.800 Z"/>
<path fill-rule="evenodd"  fill="rgb(0, 0, 0)"
 d="M47.962,17.823 C47.849,17.426 47.800,17.310 47.767,16.847 C47.296,17.343 46.612,18.039 45.181,18.039 C43.977,18.039 42.757,17.343 42.757,15.655 C42.757,13.768 44.481,12.990 46.498,12.825 C47.393,12.742 47.718,12.510 47.718,12.113 C47.718,11.186 46.873,11.153 46.336,11.153 C45.278,11.153 45.083,11.815 45.034,12.295 L43.001,12.295 C43.245,9.796 44.953,9.448 46.580,9.448 C47.718,9.448 49.768,9.796 49.768,11.815 L49.768,16.234 C49.768,17.194 49.980,17.393 50.240,17.492 L50.240,17.823 L47.962,17.823 ZM47.702,13.834 C47.491,14.000 47.133,14.149 46.287,14.265 C45.490,14.397 44.855,14.612 44.855,15.490 C44.855,16.251 45.425,16.483 45.832,16.483 C46.742,16.483 47.702,15.870 47.702,14.877 L47.702,13.834 Z"/>
<path fill-rule="evenodd"  fill="rgb(0, 0, 0)"
 d="M53.136,9.630 L53.136,10.838 L53.168,10.838 C53.461,10.342 54.079,9.431 55.592,9.431 C57.170,9.431 58.374,10.375 58.374,12.163 L58.374,17.807 L56.276,17.807 L56.276,12.858 C56.276,12.262 56.243,11.252 54.909,11.252 C53.965,11.252 53.250,11.898 53.250,13.139 L53.250,17.807 L51.151,17.807 L51.151,9.647 C51.151,9.647 53.152,9.647 53.136,9.630 Z"/>
<path fill-rule="evenodd"  fill="rgb(0, 0, 0)"
 d="M61.530,14.314 C61.530,14.943 61.677,16.317 63.368,16.317 C63.954,16.317 64.556,16.003 64.719,15.423 L66.882,15.423 C66.329,17.377 64.735,18.022 63.368,18.022 C61.107,18.022 59.366,16.913 59.366,13.569 C59.366,12.576 59.724,9.448 63.222,9.448 C65.483,9.448 66.980,10.706 66.980,13.520 L66.980,14.314 L61.530,14.314 ZM63.189,11.203 C62.181,11.203 61.644,11.865 61.530,12.924 L64.816,12.924 C64.686,11.600 63.873,11.203 63.189,11.203 Z"/>
<path fill-rule="evenodd"  fill="rgb(0, 0, 0)"
 d="M68.298,7.479 L70.380,7.479 L70.380,9.663 L71.698,9.663 L71.698,11.203 L70.380,11.203 L70.380,15.639 C70.380,16.102 70.412,16.284 71.258,16.284 C71.405,16.284 71.665,16.268 71.698,16.251 L71.698,17.857 C71.437,17.873 71.047,17.890 70.722,17.890 C68.623,17.890 68.298,17.194 68.298,16.135 L68.298,11.186 L67.224,11.186 L67.224,9.663 L68.298,9.663 L68.298,7.479 L68.298,7.479 Z"/>
<path fill-rule="evenodd"  fill="rgb(0, 0, 0)"
 d="M77.408,17.823 C77.294,17.426 77.245,17.310 77.212,16.847 C76.741,17.343 76.057,18.039 74.626,18.039 C73.422,18.039 72.202,17.343 72.202,15.655 C72.202,13.768 73.943,12.990 75.943,12.825 C76.838,12.742 77.163,12.510 77.163,12.113 C77.163,11.186 76.317,11.153 75.781,11.153 C74.723,11.153 74.528,11.815 74.479,12.295 L72.446,12.295 C72.690,9.796 74.398,9.448 76.025,9.448 C77.163,9.448 79.213,9.796 79.213,11.815 L79.213,16.234 C79.213,17.194 79.425,17.393 79.685,17.492 L79.685,17.823 L77.408,17.823 ZM77.147,13.834 C76.936,14.000 76.578,14.149 75.732,14.265 C74.935,14.397 74.301,14.612 74.301,15.490 C74.301,16.251 74.870,16.483 75.277,16.483 C76.187,16.483 77.147,15.870 77.147,14.877 L77.147,13.834 Z"/>
<path fill-rule="evenodd"  fill="rgb(0, 0, 0)"
 d="M86.225,9.647 L86.225,9.630 L88.258,9.630 L88.258,11.054 L88.291,11.054 C88.730,10.226 89.202,9.431 90.487,9.431 C90.568,9.431 90.796,9.448 90.894,9.465 L90.894,11.633 C90.682,11.616 90.471,11.600 90.276,11.600 C88.649,11.600 88.323,12.626 88.323,13.536 L88.323,17.807 L86.225,17.807 L86.225,9.647 L86.225,9.647 Z"/>
<path fill-rule="evenodd"  fill="rgb(0, 0, 0)"
 d="M91.593,9.647 L93.692,9.647 L93.692,14.695 C93.692,15.937 94.408,16.201 95.058,16.201 C95.741,16.201 96.685,15.788 96.685,14.331 L96.685,9.630 L98.784,9.630 L98.784,17.790 L96.766,17.790 L96.766,16.648 L96.734,16.648 C96.262,17.509 95.416,18.005 94.294,18.005 C92.716,18.005 91.593,17.095 91.593,15.010 L91.593,9.647 L91.593,9.647 Z"/>
<path fill-rule="evenodd"  fill="rgb(0, 178, 226)"
 d="M80.400,16.000 C80.400,14.453 81.654,13.200 83.200,13.200 C84.746,13.200 86.000,14.453 86.000,16.000 C86.000,17.546 84.746,18.800 83.200,18.800 C81.654,18.800 80.400,17.546 80.400,16.000 Z"/>
</svg>