<svg 
 xmlns="http://www.w3.org/2000/svg"
 xmlns:xlink="http://www.w3.org/1999/xlink"
 width="15px" height="15px">
<path fill-rule="evenodd"  fill="rgb(1, 200, 254)"
 d="M14.297,8.203 L12.422,8.203 C12.033,8.203 11.719,7.888 11.719,7.500 C11.719,7.112 12.033,6.797 12.422,6.797 L14.297,6.797 C14.685,6.797 15.000,7.112 15.000,7.500 C15.000,7.888 14.685,8.203 14.297,8.203 ZM11.513,4.481 C11.336,4.664 11.075,4.738 10.829,4.673 C10.584,4.609 10.391,4.417 10.327,4.171 C10.263,3.926 10.336,3.664 10.518,3.487 L11.925,2.081 C12.101,1.898 12.362,1.825 12.608,1.889 C12.854,1.953 13.046,2.145 13.110,2.391 C13.175,2.637 13.102,2.898 12.919,3.075 L11.513,4.481 ZM11.015,10.312 C11.202,10.313 11.381,10.387 11.513,10.519 L12.919,11.925 C13.102,12.101 13.175,12.363 13.110,12.609 C13.046,12.855 12.854,13.047 12.608,13.111 C12.362,13.175 12.101,13.102 11.925,12.919 L10.518,11.512 C10.317,11.311 10.257,11.009 10.366,10.746 C10.475,10.484 10.731,10.313 11.015,10.312 ZM7.500,15.000 C7.112,15.000 6.797,14.685 6.797,14.297 L6.797,12.422 C6.797,12.033 7.112,11.719 7.500,11.719 C7.888,11.719 8.203,12.033 8.203,12.422 L8.203,14.297 C8.203,14.685 7.888,15.000 7.500,15.000 ZM7.500,3.281 C7.112,3.281 6.797,2.966 6.797,2.578 L6.797,0.703 C6.797,0.315 7.112,0.000 7.500,0.000 C7.888,0.000 8.203,0.315 8.203,0.703 L8.203,2.578 C8.203,2.966 7.888,3.281 7.500,3.281 ZM3.984,4.687 C3.798,4.687 3.619,4.613 3.487,4.481 L2.081,3.075 C1.898,2.898 1.825,2.637 1.889,2.391 C1.954,2.145 2.146,1.953 2.392,1.889 C2.638,1.825 2.899,1.898 3.075,2.081 L4.482,3.487 C4.682,3.689 4.742,3.991 4.634,4.254 C4.525,4.516 4.269,4.687 3.984,4.687 ZM3.281,7.500 C3.281,7.888 2.967,8.203 2.578,8.203 L0.703,8.203 C0.315,8.203 0.000,7.888 0.000,7.500 C0.000,7.112 0.315,6.797 0.703,6.797 L2.578,6.797 C2.967,6.797 3.281,7.112 3.281,7.500 ZM3.487,10.519 C3.664,10.336 3.925,10.262 4.171,10.327 C4.416,10.391 4.609,10.583 4.673,10.829 C4.737,11.074 4.664,11.336 4.482,11.512 L3.075,12.919 C2.899,13.102 2.638,13.175 2.392,13.111 C2.146,13.047 1.954,12.855 1.889,12.609 C1.825,12.363 1.898,12.101 2.081,11.925 L3.487,10.519 Z"/>
</svg>