<svg 
 xmlns="http://www.w3.org/2000/svg"
 xmlns:xlink="http://www.w3.org/1999/xlink"
 width="18px" height="14px">
<path fill-rule="evenodd"  fill="rgb(1, 200, 254)"
 d="M8.458,0.048 C8.328,0.107 8.213,0.196 8.123,0.309 C7.978,0.595 7.874,0.900 7.812,1.216 C7.663,1.643 7.545,2.124 7.396,2.553 C7.353,2.683 7.353,2.795 7.309,2.922 C6.788,4.403 6.471,5.996 5.949,7.475 C5.843,7.770 5.812,8.055 5.713,8.352 C5.582,8.748 5.465,9.190 5.328,9.583 C5.272,9.746 5.266,9.897 5.210,10.060 C5.142,10.248 5.104,10.456 5.030,10.660 C4.986,10.752 4.957,10.851 4.912,10.952 C4.825,10.697 4.717,10.450 4.589,10.213 C4.471,9.968 4.397,9.730 4.291,9.475 C4.136,9.105 3.943,8.723 3.788,8.352 C3.700,7.932 3.471,7.557 3.142,7.291 C2.770,7.190 2.383,7.159 1.999,7.199 C1.186,7.198 0.459,7.070 0.124,7.599 C0.012,7.770 -0.026,7.982 0.018,8.183 C0.049,8.287 0.095,8.385 0.155,8.475 C0.265,8.615 0.414,8.717 0.583,8.768 C0.648,8.771 0.713,8.781 0.776,8.799 L2.328,8.799 C2.381,8.908 2.424,9.021 2.459,9.137 C2.565,9.382 2.676,9.636 2.782,9.891 C3.204,10.884 3.670,11.882 4.086,12.875 C4.278,13.335 4.397,13.843 4.900,13.982 C5.147,14.039 5.404,13.957 5.577,13.767 C5.752,13.538 5.870,13.269 5.918,12.982 C6.073,12.531 6.185,12.052 6.334,11.582 C6.607,10.718 6.831,9.791 7.129,8.936 C7.284,8.502 7.365,8.049 7.514,7.629 C7.551,7.529 7.539,7.454 7.576,7.352 C7.725,6.891 7.856,6.380 8.017,5.921 C8.073,5.758 8.079,5.610 8.135,5.445 C8.272,5.050 8.384,4.608 8.520,4.214 C8.554,4.006 8.614,3.805 8.713,3.599 C8.899,4.116 8.967,4.665 9.141,5.198 C9.626,6.679 9.924,8.268 10.415,9.751 C10.588,10.282 10.607,10.976 11.004,11.274 C11.192,11.426 11.438,11.477 11.669,11.413 C12.135,11.249 12.184,10.787 12.396,10.352 C12.719,9.671 12.985,8.925 13.277,8.229 C13.364,8.026 13.439,7.835 13.513,7.644 C13.540,7.554 13.576,7.466 13.631,7.367 C13.892,7.952 14.041,8.977 14.638,9.182 C14.990,9.247 15.349,9.263 15.706,9.229 C16.332,9.289 16.964,9.258 17.581,9.136 C17.862,8.962 18.023,8.641 17.997,8.306 C17.970,8.186 17.924,8.072 17.861,7.967 C17.749,7.819 17.595,7.712 17.420,7.660 C17.355,7.656 17.290,7.645 17.227,7.629 L15.880,7.629 C15.708,7.647 15.535,7.642 15.364,7.613 C15.332,7.545 15.307,7.473 15.289,7.398 C15.196,7.165 15.122,6.921 15.023,6.675 C14.836,6.197 14.638,5.692 14.464,5.211 C14.403,4.871 14.164,4.593 13.843,4.489 C13.757,4.456 13.666,4.445 13.576,4.457 C13.029,4.586 12.948,4.992 12.750,5.473 C12.489,6.100 12.240,6.772 11.948,7.382 C11.855,7.574 11.793,7.783 11.712,7.967 C11.685,8.069 11.646,8.167 11.582,8.275 C11.371,7.680 11.253,7.025 11.060,6.429 C11.029,6.328 11.035,6.244 11.004,6.137 C10.570,4.795 10.253,3.368 9.849,2.015 C9.750,1.686 9.682,1.357 9.582,1.046 C9.402,0.476 9.377,0.011 8.651,0.000 C8.588,0.021 8.523,0.037 8.458,0.048 Z"/>
</svg>