<svg 
 xmlns="http://www.w3.org/2000/svg"
 xmlns:xlink="http://www.w3.org/1999/xlink"
 width="30px" height="30px">
<path fill-rule="evenodd"  fill="rgb(26, 140, 255)"
 d="M14.989,30.000 C6.711,30.000 -0.000,23.284 -0.000,15.000 C-0.000,6.716 6.711,-0.000 14.989,-0.000 C23.267,-0.000 29.978,6.716 29.978,15.000 C29.978,23.284 23.267,30.000 14.989,30.000 ZM21.512,10.593 C20.621,10.910 20.495,10.868 20.935,10.391 C21.260,10.052 21.648,9.438 21.648,9.258 C21.648,9.226 21.491,9.279 21.313,9.374 C21.124,9.481 20.704,9.639 20.390,9.735 L19.824,9.915 L19.310,9.565 C19.027,9.374 18.629,9.163 18.419,9.099 C17.884,8.951 17.066,8.972 16.584,9.141 C15.273,9.618 14.445,10.847 14.540,12.192 L14.571,12.711 L14.047,12.647 C12.139,12.404 10.472,11.578 9.056,10.190 L8.364,9.501 L8.186,10.010 C7.809,11.143 8.050,12.340 8.836,13.145 C9.256,13.590 9.161,13.654 8.438,13.389 C8.186,13.304 7.966,13.241 7.945,13.273 C7.872,13.346 8.123,14.311 8.322,14.692 C8.595,15.221 9.151,15.741 9.759,16.048 L10.272,16.291 L9.665,16.302 C9.077,16.302 9.056,16.313 9.119,16.535 C9.329,17.223 10.157,17.954 11.080,18.272 L11.730,18.495 L11.164,18.833 C10.325,19.321 9.340,19.596 8.354,19.617 C7.882,19.628 7.494,19.670 7.494,19.702 C7.494,19.808 8.773,20.401 9.518,20.634 C11.751,21.323 14.403,21.026 16.395,19.850 C17.811,19.014 19.226,17.350 19.887,15.741 C20.243,14.883 20.600,13.315 20.600,12.563 C20.600,12.075 20.631,12.012 21.218,11.429 C21.564,11.090 21.889,10.720 21.952,10.614 C22.057,10.412 22.047,10.412 21.512,10.593 Z"/>
</svg>