<svg 
 xmlns="http://www.w3.org/2000/svg"
 xmlns:xlink="http://www.w3.org/1999/xlink"
 width="30px" height="30px">
<path fill-rule="evenodd"  fill="rgb(26, 140, 255)"
 d="M14.989,30.000 C6.711,30.000 -0.000,23.284 -0.000,15.000 C-0.000,6.716 6.711,-0.000 14.989,-0.000 C23.267,-0.000 29.977,6.716 29.977,15.000 C29.977,23.284 23.267,30.000 14.989,30.000 ZM21.705,13.553 C22.688,12.267 23.080,11.482 22.958,11.146 C22.841,10.825 22.118,10.910 22.118,10.910 L19.714,10.925 C19.714,10.925 19.536,10.901 19.404,10.979 C19.275,11.055 19.191,11.232 19.191,11.232 C19.191,11.232 18.812,12.227 18.304,13.074 C17.234,14.859 16.806,14.953 16.630,14.843 C16.223,14.584 16.325,13.804 16.325,13.250 C16.325,11.520 16.592,10.798 15.805,10.612 C15.544,10.549 15.351,10.509 14.683,10.502 C13.825,10.493 13.099,10.505 12.688,10.702 C12.414,10.834 12.203,11.127 12.332,11.144 C12.491,11.165 12.851,11.239 13.041,11.494 C13.288,11.824 13.279,12.563 13.279,12.563 C13.279,12.563 13.420,14.600 12.948,14.853 C12.624,15.026 12.180,14.672 11.226,13.052 C10.737,12.222 10.368,11.305 10.368,11.305 C10.368,11.305 10.297,11.134 10.169,11.042 C10.015,10.930 9.800,10.896 9.800,10.896 L7.516,10.910 C7.516,10.910 7.173,10.920 7.046,11.066 C6.935,11.196 7.038,11.466 7.038,11.466 C7.038,11.466 8.826,15.576 10.852,17.648 C12.709,19.547 14.817,19.422 14.817,19.422 L15.773,19.422 C15.773,19.422 16.061,19.391 16.209,19.235 C16.344,19.092 16.340,18.823 16.340,18.823 C16.340,18.823 16.322,17.563 16.917,17.378 C17.503,17.195 18.256,18.595 19.056,19.134 C19.659,19.541 20.117,19.452 20.117,19.452 L22.253,19.422 C22.253,19.422 23.370,19.355 22.840,18.492 C22.796,18.422 22.531,17.854 21.253,16.688 C19.913,15.467 20.093,15.665 21.705,13.553 Z"/>
</svg>