<svg 
 xmlns="http://www.w3.org/2000/svg"
 xmlns:xlink="http://www.w3.org/1999/xlink"
 width="31px" height="30px">
<path fill-rule="evenodd"  fill="rgb(26, 140, 255)"
 d="M15.010,30.000 C6.720,30.000 0.000,23.284 0.000,15.000 C0.000,6.716 6.720,-0.000 15.010,-0.000 C23.300,-0.000 30.021,6.716 30.021,15.000 C30.021,23.284 23.300,30.000 15.010,30.000 ZM22.983,14.627 C22.983,13.304 22.823,11.981 22.823,11.981 C22.823,11.981 22.666,10.854 22.187,10.358 C21.579,9.706 20.898,9.703 20.586,9.666 C18.348,9.500 14.992,9.500 14.992,9.500 L14.985,9.500 C14.985,9.500 11.629,9.500 9.392,9.666 C9.079,9.703 8.398,9.706 7.790,10.358 C7.311,10.854 7.155,11.981 7.155,11.981 C7.155,11.981 6.995,13.304 6.995,14.627 L6.995,15.867 C6.995,17.191 7.155,18.514 7.155,18.514 C7.155,18.514 7.311,19.640 7.790,20.136 C8.398,20.788 9.197,20.767 9.553,20.835 C10.832,20.961 14.989,21.000 14.989,21.000 C14.989,21.000 18.348,20.995 20.586,20.829 C20.898,20.791 21.579,20.788 22.187,20.136 C22.666,19.640 22.823,18.514 22.823,18.514 C22.823,18.514 22.983,17.191 22.983,15.867 L22.983,14.627 Z"/>
<path fill-rule="evenodd"  fill="rgb(26, 140, 255)"
 d="M13.338,17.370 L13.337,12.777 L17.657,15.081 L13.338,17.370 Z"/>
</svg>